name C:\Users\u0101727\Documents\MyRepositories\upper-imu-dc\Results\main_mocap_tracking\Case_6\angularVelocities.mot
datacolumns 4
datarows 105
range 2.01000000 3.05000000
endheader 
time	radius_imu_x	radius_imu_y	radius_imu_z	
          2.01000000	         -0.92170695	          0.52974588	         -0.69179312	
          2.02000000	         -0.91573918	          0.49990272	         -0.68655722	
          2.03000000	         -0.91202634	          0.47002809	         -0.68047610	
          2.04000000	         -0.91192245	          0.45807907	         -0.67406390	
          2.05000000	         -0.91591640	          0.47663381	         -0.66769493	
          2.06000000	         -0.92353360	          0.52785039	         -0.66161431	
          2.07000000	         -0.93334865	          0.60233723	         -0.65589335	
          2.08000000	         -0.94331916	          0.68381165	         -0.65045942	
          2.09000000	         -0.95133055	          0.75527264	         -0.64516239	
          2.10000000	         -0.95580912	          0.80342324	         -0.63978765	
          2.11000000	         -0.95618022	          0.82117563	         -0.63413867	
          2.12000000	         -0.95274098	          0.80731302	         -0.62811125	
          2.13000000	         -0.94600131	          0.76352390	         -0.62163491	
          2.14000000	         -0.93630479	          0.69319266	         -0.61470538	
          2.15000000	         -0.92402120	          0.60305885	         -0.60753550	
          2.16000000	         -0.90968384	          0.50276495	         -0.60053108	
          2.17000000	         -0.89399567	          0.40162058	         -0.59411030	
          2.18000000	         -0.87809423	          0.30748678	         -0.58864518	
          2.19000000	         -0.86377300	          0.22903581	         -0.58456695	
          2.20000000	         -0.85306923	          0.17680414	         -0.58244565	
          2.21000000	         -0.84733967	          0.15915866	         -0.58289726	
          2.22000000	         -0.84666341	          0.17701857	         -0.58640090	
          2.23000000	         -0.85006524	          0.22403237	         -0.59320128	
          2.24000000	         -0.85609048	          0.29103131	         -0.60329061	
          2.25000000	         -0.86329612	          0.37008770	         -0.61635658	
          2.26000000	         -0.87059629	          0.45741908	         -0.63190031	
          2.27000000	         -0.87729400	          0.55344810	         -0.64932192	
          2.28000000	         -0.88263216	          0.65792677	         -0.66788366	
          2.29000000	         -0.88525041	          0.76389928	         -0.68671509	
          2.30000000	         -0.88328147	          0.85686063	         -0.70482261	
          2.31000000	         -0.87515066	          0.92045679	         -0.72118916	
          2.32000000	         -0.86032805	          0.94311808	         -0.73492510	
          2.33000000	         -0.83941177	          0.92009244	         -0.74539563	
          2.34000000	         -0.81366304	          0.85203464	         -0.75230873	
          2.35000000	         -0.78453118	          0.74329295	         -0.75577123	
          2.36000000	         -0.75339315	          0.60125161	         -0.75623614	
          2.37000000	         -0.72144750	          0.43680243	         -0.75430143	
          2.38000000	         -0.68975557	          0.26429380	         -0.75047361	
          2.39000000	         -0.65941264	          0.10009563	         -0.74507243	
          2.40000000	         -0.63175461	         -0.03861164	         -0.73836978	
          2.41000000	         -0.60839174	         -0.13400996	         -0.73082893	
          2.42000000	         -0.59089701	         -0.16886935	         -0.72322053	
          2.43000000	         -0.58008437	         -0.13206605	         -0.71643989	
          2.44000000	         -0.57514223	         -0.02776233	         -0.71101349	
          2.45000000	         -0.57352447	          0.12147644	         -0.70673651	
          2.46000000	         -0.57210642	          0.28480576	         -0.70289053	
          2.47000000	         -0.56866404	          0.43708711	         -0.69874208	
          2.48000000	         -0.56255825	          0.56500669	         -0.69383504	
          2.49000000	         -0.55458562	          0.66601588	         -0.68806648	
          2.50000000	         -0.54630618	          0.74386767	         -0.68167953	
          2.51000000	         -0.53914371	          0.80193078	         -0.67510876	
          2.52000000	         -0.53379794	          0.83859527	         -0.66872472	
          2.53000000	         -0.53026265	          0.84885680	         -0.66271198	
          2.54000000	         -0.52817084	          0.82915861	         -0.65709672	
          2.55000000	         -0.52705628	          0.78000160	         -0.65177709	
          2.56000000	         -0.52643628	          0.70558379	         -0.64652250	
          2.57000000	         -0.52583778	          0.61280898	         -0.64102539	
          2.58000000	         -0.52481518	          0.51019210	         -0.63502236	
          2.59000000	         -0.52294745	          0.40656862	         -0.62837215	
          2.60000000	         -0.51989833	          0.31063037	         -0.62103779	
          2.61000000	         -0.51559959	          0.23097843	         -0.61306685	
          2.62000000	         -0.51039140	          0.17479560	         -0.60463401	
          2.63000000	         -0.50487931	          0.14491481	         -0.59605402	
          2.64000000	         -0.49958282	          0.13765353	         -0.58769405	
          2.65000000	         -0.49470830	          0.14378188	         -0.57986051	
          2.66000000	         -0.49024320	          0.15224835	         -0.57277047	
          2.67000000	         -0.48624308	          0.15444582	         -0.56659253	
          2.68000000	         -0.48299375	          0.14709141	         -0.56145235	
          2.69000000	         -0.48088110	          0.13243597	         -0.55740309	
          2.70000000	         -0.48010730	          0.11589110	         -0.55443678	
          2.71000000	         -0.48050472	          0.10284476	         -0.55251652	
          2.72000000	         -0.48159193	          0.09658146	         -0.55157369	
          2.73000000	         -0.48284262	          0.09818938	         -0.55148813	
          2.74000000	         -0.48396850	          0.10775910	         -0.55208446	
          2.75000000	         -0.48498766	          0.12506040	         -0.55316012	
          2.76000000	         -0.48600487	          0.14896697	         -0.55452782	
          2.77000000	         -0.48685053	          0.17651801	         -0.55602869	
          2.78000000	         -0.48686565	          0.20261685	         -0.55751350	
          2.79000000	         -0.48501019	          0.22086822	         -0.55879844	
          2.80000000	         -0.48024514	          0.22552570	         -0.55960532	
          2.81000000	         -0.47206056	          0.21394738	         -0.55958212	
          2.82000000	         -0.46087774	          0.18819567	         -0.55844610	
          2.83000000	         -0.44790790	          0.15408770	         -0.55610449	
          2.84000000	         -0.43445007	          0.11795468	         -0.55264315	
          2.85000000	         -0.42124538	          0.08409423	         -0.54825284	
          2.86000000	         -0.40841906	          0.05502669	         -0.54317634	
          2.87000000	         -0.39586883	          0.03336406	         -0.53770978	
          2.88000000	         -0.38359778	          0.02254279	         -0.53225082	
          2.89000000	         -0.37175779	          0.02557679	         -0.52728610	
          2.90000000	         -0.36055652	          0.04361222	         -0.52321002	
          2.91000000	         -0.35013211	          0.07557501	         -0.52006724	
          2.92000000	         -0.34047217	          0.11837675	         -0.51743395	
          2.93000000	         -0.33136667	          0.16701444	         -0.51459345	
          2.94000000	         -0.32238711	          0.21486171	         -0.51095263	
          2.95000000	         -0.31297725	          0.25452381	         -0.50637675	
          2.96000000	         -0.30256055	          0.27927737	         -0.50111795	
          2.97000000	         -0.29055498	          0.28482490	         -0.49536771	
          2.98000000	         -0.27640812	          0.27039773	         -0.48885309	
          2.99000000	         -0.25980485	          0.23880022	         -0.48084984	
          3.00000000	         -0.24101439	          0.19589919	         -0.47052708	
          3.01000000	         -0.22104207	          0.15020359	         -0.45744998	
          3.02000000	         -0.20143471	          0.10986910	         -0.44175962	
          3.03000000	         -0.18368235	          0.07910435	         -0.42401976	
          3.04000000	         -0.16857760	          0.05717525	         -0.40498513	
          3.05000000	         -0.15600805	          0.03988456	         -0.38535603	
